/* XPM */
static char * mindes_xpm[] = {
"26 26 2 1",
" 	c None",
".	c #949494",
"                          ",
"                          ",
"                          ",
"                          ",
"                          ",
"                          ",
"                          ",
"                          ",
"                          ",
"                          ",
"                          ",
"                          ",
"                          ",
"                          ",
"                          ",
"                          ",
"                          ",
"                          ",
"..............            ",
"..............            ",
"                          ",
"                          ",
"                          ",
"                          ",
"                          ",
"                          "};
