/* XPM */
static char * cerrardes_xpm[] = {
"26 26 2 1",
" 	c None",
".	c #949494",
"                          ",
"                          ",
"                          ",
"                          ",
"                          ",
"                          ",
"..          ..            ",
"...        ...            ",
" ...      ...             ",
"  ...    ...              ",
"   ...  ...               ",
"    ......                ",
"     ....                 ",
"     ....                 ",
"    ......                ",
"   ...  ...               ",
"  ...    ...              ",
" ...      ...             ",
"...        ...            ",
"..          ..            ",
"                          ",
"                          ",
"                          ",
"                          ",
"                          ",
"                          "};
