/* XPM */
static char * minenf_xpm[] = {
"26 26 2 1",
" 	c None",
".	c #FFFFFF",
"                          ",
"                          ",
"                          ",
"                          ",
"                          ",
"                          ",
"                          ",
"                          ",
"                          ",
"                          ",
"                          ",
"                          ",
"                          ",
"                          ",
"                          ",
"                          ",
"                          ",
"                          ",
"..............            ",
"..............            ",
"                          ",
"                          ",
"                          ",
"                          ",
"                          ",
"                          "};
